<?xml version="1.0" standalone="no"?>
<!DOCTYPE svg PUBLIC "-//W3C//DTD SVG 20010904//EN"
 "http://www.w3.org/TR/2001/REC-SVG-20010904/DTD/svg10.dtd">
<svg version="1.0" xmlns="http://www.w3.org/2000/svg"
 width="92.000000pt" height="92.000000pt" viewBox="0 0 92.000000 92.000000"
 preserveAspectRatio="xMidYMid meet">
<metadata>
Created by potrace 1.11, written by Peter Selinger 2001-2013
</metadata>
<g transform="translate(0.000000,92.000000) scale(0.100000,-0.100000)"
fill="#000000" stroke="none">
<path d="M0 875 c0 -25 2 -45 6 -45 3 0 12 16 20 35 8 19 19 35 24 35 6 0 10
5 10 10 0 6 -13 10 -30 10 -29 0 -30 -2 -30 -45z"/>
<path d="M375 910 c4 -6 11 -8 16 -5 5 4 9 -2 9 -12 1 -10 11 -31 24 -47 l24
-29 27 22 c15 11 40 21 56 21 29 0 39 13 31 43 -4 15 -17 17 -99 17 -61 0 -92
-4 -88 -10z"/>
<path d="M627 913 c-4 -3 -7 -17 -7 -29 0 -17 14 -31 58 -55 31 -18 59 -36 60
-41 2 -4 10 -8 18 -8 12 0 11 8 -5 39 -11 21 -27 41 -36 44 -8 4 -20 18 -27
32 -11 24 -45 34 -61 18z"/>
<path d="M870 885 c0 -8 6 -15 14 -15 16 0 28 -34 16 -47 -5 -4 -11 -29 -15
-55 -7 -44 -6 -48 14 -48 20 0 21 5 21 78 0 77 -9 102 -37 102 -7 0 -13 -7
-13 -15z"/>
<path d="M779 689 c-6 -12 -8 -36 -4 -55 6 -34 -8 -48 -19 -19 -11 28 -66 43
-127 35 -102 -14 -132 -44 -116 -114 11 -50 25 -56 126 -56 68 0 96 17 121 74
l19 40 11 -29 c17 -43 6 -134 -21 -186 -13 -24 -24 -57 -24 -74 0 -20 -5 -30
-15 -31 -8 0 -23 -5 -33 -9 -12 -5 -32 -2 -52 8 -26 12 -37 26 -46 58 -16 50
-48 67 -84 43 -17 -11 -36 -14 -69 -9 -42 7 -46 6 -46 -14 0 -11 4 -21 10 -21
5 0 20 -12 34 -26 14 -16 30 -24 39 -21 16 6 44 -18 30 -26 -19 -11 -122 -6
-158 7 -22 8 -34 15 -27 15 23 2 2 21 -22 21 -26 0 -59 -41 -50 -63 3 -8 -9
-29 -26 -46 -16 -18 -30 -38 -30 -44 0 -6 14 -41 31 -79 l32 -68 328 0 329 0
0 49 c0 28 -4 53 -10 56 -5 3 -10 17 -10 30 0 13 5 27 10 30 6 3 10 31 10 60
0 44 -3 53 -15 49 -8 -4 -15 -12 -15 -20 0 -19 -17 -17 -39 5 -10 10 -25 21
-32 24 -11 4 -11 7 3 18 9 8 18 28 19 44 2 17 9 38 15 49 7 10 10 25 7 33 -3
7 3 23 13 35 14 15 16 22 6 25 -23 8 -42 34 -42 56 0 34 -33 167 -41 167 -5 0
-13 -9 -20 -21z m-104 -89 c4 -6 -7 -10 -27 -10 -25 0 -29 3 -18 10 19 13 37
13 45 0z m-19 -78 c35 4 44 -19 11 -28 -40 -9 -62 -1 -65 26 -3 21 -2 22 12
11 8 -7 27 -11 42 -9z m210 -320 c8 -5 4 -13 -12 -25 -23 -17 -24 -17 -24 1 0
29 14 39 36 24z m-92 -71 c3 -5 -1 -11 -9 -15 -9 -3 -15 0 -15 9 0 16 16 20
24 6z m-336 -27 c64 -8 74 -34 13 -34 -55 0 -97 17 -97 39 0 15 4 17 16 11 9
-5 40 -12 68 -16z m359 -14 c-2 -26 -17 -26 -17 0 0 11 4 20 9 20 6 0 9 -9 8
-20z"/>
<path d="M242 628 c-25 -25 -13 -36 31 -32 l42 5 -45 -18 c-32 -13 -45 -24
-45 -38 0 -16 7 -20 35 -21 76 -1 90 -4 90 -19 0 -19 13 -19 49 0 53 27 57 86
9 115 -38 23 -146 28 -166 8z"/>
<path d="M134 615 c-3 -8 -4 -20 -2 -27 3 -7 7 -1 10 15 6 29 1 36 -8 12z"/>
<path d="M310 480 c-13 -8 -13 -10 2 -10 9 0 20 5 23 10 8 13 -5 13 -25 0z"/>
<path d="M0 310 c0 -5 5 -10 11 -10 5 0 7 5 4 10 -3 6 -8 10 -11 10 -2 0 -4
-4 -4 -10z"/>
<path d="M18 263 c-22 -5 -23 -34 -3 -73 11 -21 23 -30 47 -32 29 -3 33 -7 33
-32 0 -62 -67 -60 -73 3 -6 63 -22 29 -22 -49 l0 -80 49 0 c45 0 51 3 70 34
14 23 21 50 21 86 0 47 -2 52 -20 47 -26 -7 -25 8 2 27 21 15 21 16 2 38 -32
39 -53 45 -106 31z"/>
</g>
</svg>
